<?xml version="1.0" encoding="utf-8"?>
<svg xmlns="http://www.w3.org/2000/svg" xmlns:xlink="http://www.w3.org/1999/xlink" style="margin: auto; background: rgb(241, 242, 243); display: block; shape-rendering: auto;" width="200px" height="200px" viewBox="0 0 100 100" preserveAspectRatio="xMidYMid">
<g transform="translate(50 50)">
<g transform="rotate(7.4973)">
<animateTransform attributeName="transform" type="rotate" values="0;30" keyTimes="0;1" dur="0.2s" repeatCount="indefinite"></animateTransform><path d="M29.58039891549808 -5 L38.58039891549808 -5 L38.58039891549808 5 L29.58039891549808 5 A30 30 0 0 1 28.117376914898998 10.460072438826845 L28.117376914898998 10.460072438826845 L35.911605548958946 14.960072438826845 L30.911605548958946 23.62032647667123 L23.117376914898998 19.12032647667123 A30 30 0 0 1 19.120326476671238 23.117376914898994 L19.120326476671238 23.117376914898994 L23.620326476671238 30.911605548958942 L14.960072438826852 35.911605548958946 L10.46007243882685 28.117376914898998 A30 30 0 0 1 5.000000000000001 29.58039891549808 L5.000000000000001 29.58039891549808 L5.000000000000002 38.58039891549808 L-4.9999999999999964 38.58039891549808 L-4.999999999999997 29.58039891549808 A30 30 0 0 1 -10.46007243882684 28.117376914898998 L-10.46007243882684 28.117376914898998 L-14.960072438826838 35.911605548958946 L-23.620326476671224 30.91160554895895 L-19.120326476671227 23.117376914899 A30 30 0 0 1 -23.11737691489899 19.120326476671245 L-23.11737691489899 19.120326476671245 L-30.911605548958935 23.62032647667125 L-35.91160554895894 14.960072438826863 L-28.117376914898994 10.46007243882686 A30 30 0 0 1 -29.58039891549808 5.000000000000002 L-29.58039891549808 5.000000000000002 L-38.58039891549808 5.000000000000003 L-38.58039891549808 -4.999999999999995 L-29.58039891549808 -4.999999999999996 A30 30 0 0 1 -28.117376914898998 -10.460072438826838 L-28.117376914898998 -10.460072438826838 L-35.911605548958946 -14.960072438826836 L-30.911605548958953 -23.620326476671224 L-23.117376914899005 -19.120326476671227 A30 30 0 0 1 -19.120326476671252 -23.11737691489898 L-19.120326476671252 -23.11737691489898 L-23.620326476671256 -30.911605548958924 L-14.960072438826852 -35.911605548958946 L-10.460072438826849 -28.117376914898998 A30 30 0 0 1 -5.000000000000017 -29.580398915498076 L-5.000000000000017 -29.580398915498076 L-5.000000000000019 -38.58039891549808 L5.000000000000004 -38.58039891549808 L5.000000000000006 -29.58039891549808 A30 30 0 0 1 10.460072438826812 -28.11737691489901 L10.460072438826812 -28.11737691489901 L14.960072438826806 -35.91160554895896 L23.620326476671217 -30.911605548958956 L19.120326476671224 -23.117376914899005 A30 30 0 0 1 23.117376914898976 -19.120326476671252 L23.117376914898976 -19.120326476671252 L30.91160554895892 -23.620326476671256 L35.911605548958946 -14.960072438826852 L28.117376914898998 -10.46007243882685 A30 30 0 0 1 29.580398915498076 -5.0000000000000195 M0 -23A23 23 0 1 0 0 23 A23 23 0 1 0 0 -23" fill="#cb9651"></path></g></g>
<!-- [ldio] generated by https://loading.io/ --></svg>